<?xml version="1.0" encoding="utf-8"?>
<!-- Generator: Adobe Illustrator 27.5.0, SVG Export Plug-In . SVG Version: 6.00 Build 0)  -->
<svg version="1.1" id="Capa_1" xmlns="http://www.w3.org/2000/svg" xmlns:xlink="http://www.w3.org/1999/xlink" x="0px" y="0px"
	 viewBox="0 0 2122 2122" style="enable-background:new 0 0 2122 2122;" xml:space="preserve">
<g>
	<path style="fill:#61B7C3;" d="M1625.104,1096.127c-7.247-74.339-50.414-138.131-92.658-201.003
		c-6.658-9.952-13.313-19.903-19.837-29.856c-2.175-3.228-4.285-6.393-6.327-9.62c-2.109-3.296-4.219-6.658-6.329-10.018
		c-19.771-31.634-37.696-64.255-53.973-97.668c-15.091-30.909-28.799-62.478-41.323-94.504
		c-14.431-36.709-27.349-74.01-39.013-111.707c-14.5-46.46-27.152-93.515-38.684-140.636c-2.702-11.072-5.34-22.078-7.91-33.15
		c-6.918-29.722-13.51-59.51-19.836-89.298c-4.546-21.552-8.368-97.537-26.689-108.346c-59.842-35.586-144.197,8.831-203.576,26.031
		c-92.395,26.824-186.241,46.595-279.824,68.673c-32.424,7.578-70.448,17.595-85.276,50.811
		c-16.741,36.837,24.58,143.471,45.537,197.707c3.23,8.436,5.998,15.554,7.976,21.025c20.034,55.357,40.531,110.585,60.96,165.81
		c14.5,38.95,28.931,77.832,43.298,116.779c1.055,2.77,2.044,5.603,3.096,8.37c11.203,30.448,22.409,61.225,32.558,92.266
		c12.456,37.761,23.396,75.92,31.172,114.406c9.557,47.386,14.368,95.296,11.203,143.669c-1.318,20.234-3.954,40.071-7.842,59.576
		c-8.833,45.869-24.056,90.025-43.101,133.059c-32.029,72.36-74.999,141.625-117.176,210.889
		c-21.747,35.588-43.298,71.242-63.135,107.291c-39.542,71.966-71.505,164.889-23.988,231.912
		c21.155,29.722,55.028,48.373,90.025,58.853c90.284,26.952,189.997,3.954,271.52-43.43c42.901-24.914,81.588-56.085,117.505-90.487
		c32.227-30.775,62.343-64.188,91.34-98.063c16.938-19.771,33.613-39.739,49.956-59.905
		c40.463-49.822,79.281-100.964,116.385-153.291c16.804-23.725,33.281-47.647,49.362-71.834
		c20.495-30.711,40.397-61.817,59.708-93.318c5.074-8.305,10.148-16.609,15.157-24.977
		C1590.439,1266.883,1633.606,1183.448,1625.104,1096.127z"/>
	<path style="fill:#E9502C;" d="M946.04,1648.921c-53.315-32.95-113.023-57.269-174.511-69.528
		c-21.747,35.588-43.298,71.242-63.135,107.291c-39.542,71.966-71.505,164.889-23.988,231.912
		c21.155,29.722,55.028,48.373,90.025,58.853c90.284,26.952,189.997,3.954,271.52-43.43c42.901-24.914,81.588-56.085,117.505-90.487
		C1104.339,1761.418,1012.602,1690.046,946.04,1648.921z"/>
	<path style="fill:#F5DD3B;" d="M931.806,1235.445c-8.833,45.869-24.056,90.025-43.101,133.059
		c68.67,26.295,133.454,64.125,192.568,108.08c82.972,61.686,146.57,142.022,223.478,208.979
		c40.463-49.822,79.281-100.964,116.385-153.291c-44.816-33.478-90.156-66.297-135.827-98.523
		C1174.79,1355.852,1058.208,1280.062,931.806,1235.445z"/>
	<path style="fill:#F5DD3B;" d="M1299.214,278.667c-4.546-21.552-8.368-97.537-26.689-108.346
		c-59.842-35.586-144.197,8.831-203.576,26.031c-92.395,26.824-186.241,46.595-279.824,68.673
		c-32.424,7.578-70.448,17.595-85.276,50.811c-16.741,36.837,24.58,143.471,45.537,197.707
		c78.821-52.195,153.751-87.057,260.516-101.422c103.204-13.907,209.505-16.212,309.149-44.156
		C1312.132,338.243,1305.54,308.455,1299.214,278.667z"/>
	<path style="fill:#E9502C;" d="M1219.44,291.788c5.839,16.668,8.745,39.311,25.121,48.453c1.257,0.701,3.284,0.407,3.944-1.036
		c7.947-17.34-2.483-35.997-7.659-53.318c-7.598-25.418-15.766-50.543-24.312-75.656c-4.658-13.678-26.185-8.027-21.846,6.024
		C1202.517,241.607,1210.663,266.745,1219.44,291.788z"/>
	<path style="fill:#E9502C;" d="M1103.107,304.75c6.329,17.486,9.111,37.474,18.388,53.539c2.65,4.59,11.59,4.419,12.421-1.625
		c2.636-19.118-3.936-39.505-9.145-57.888c-5.851-20.658-13.108-42.495-24.29-60.896c-6.631-10.916-26.275-3.856-21.454,9.045
		C1086.334,266.489,1095.976,285.054,1103.107,304.75z"/>
	<path style="fill:#E9502C;" d="M948.342,283.72c9.596,14.972,18.967,29.956,26.047,46.329c6.957,16.088,9.432,34.121,17.486,49.537
		c4.529,8.67,16.081,3.637,16.887-4.572c3.279-33.432-19.705-77.647-38.37-104.182C961.078,257.586,939.351,269.695,948.342,283.72z
		"/>
	<path style="fill:#E9502C;" d="M861.175,300.903c-4.936-17.077-32.565-8.777-26.214,7.228c7.51,18.918,14.911,37.886,22.604,56.731
		c5.995,14.68,10.419,32.117,21.757,43.542c3.023,3.045,7.293,0.492,7.734-3.204c1.966-16.482-5.701-33.835-10.12-49.615
		C871.823,337.32,866.442,319.127,861.175,300.903z"/>
	<path style="fill:#F5DD3B;" d="M1128.79,717.185c92.46-18.782,188.022-31.237,275.868-63.727
		c-14.431-36.709-27.349-74.01-39.013-111.707c-26.823,16.014-56.414,28.075-86.268,36.84
		c-66.166,19.442-135.496,24.977-203.376,37.432c-89.101,16.344-176.026,44.813-257.68,84.355
		c14.5,38.95,28.931,77.832,43.298,116.779c1.055,2.77,2.044,5.603,3.096,8.37c12.193-10.872,25.308-21.023,40.137-29.919
		C973.061,754.684,1051.353,732.937,1128.79,717.185z"/>
	<path style="fill:#F5DD3B;" d="M1214.067,927.022c97.471-18.453,199.49-35.788,285.887-81.391
		c-19.771-31.634-37.696-64.255-53.973-97.668c-55.622,35.257-115.924,63.266-178.797,82.84
		c-120.404,37.564-252.604,45.868-369.912,86.991c12.456,37.761,23.396,75.92,31.172,114.406
		c14.894-12.058,30.909-23.13,48.898-32.621C1050.695,960.83,1133.139,942.376,1214.067,927.022z"/>
	<path style="fill:#E9502C;" d="M1625.104,1096.127c-7.247-74.339-50.414-138.131-92.658-201.003
		c-92.726,84.158-141.164,216.555-117.505,340.321c4.085,21.552,10.28,42.969,21.155,62.149c20.1,35.52,54.83,58.85,94.109,69.527
		c5.074-8.305,10.148-16.609,15.157-24.977C1590.439,1266.883,1633.606,1183.448,1625.104,1096.127z"/>
	<path style="fill:#E9502C;" d="M774.759,384.153c-5.649-17.7-12.444-35.544-19.978-52.536c-5.825-13.135-26.877-3.754-22.963,9.681
		c5.501,18.879,14.302,37.703,24.836,54.258c9.118,14.331,16.507,31.671,30.173,42.087c2.348,1.791,6.585-0.602,6.2-3.557
		C790.742,416.638,780.108,400.908,774.759,384.153z"/>
	<path style="fill:#F29281;" d="M1066.393,1836.838c-47.038,25.739-90.568,49.783-143.893,60.66
		c-52.633,10.735-102.66,3.922-155.349-0.575c-12.58-1.075-18.623,19.442-6.653,24.563c96.877,41.427,246.655,9.006,318.623-68.151
		C1087.241,1844.628,1077.004,1831.033,1066.393,1836.838z"/>
	<path style="fill:#F29281;" d="M760.128,1660.592c6.45,3.489,13.615,3.674,20.787,3.072c7.118-0.6,13.727-0.614,20-4.412
		c5.732-3.469,5.732-11.824,0-15.294c-6.273-3.798-12.882-3.812-20-4.411c-7.172-0.602-14.336-0.417-20.787,3.072
		C753.355,1646.283,753.355,1656.928,760.128,1660.592z"/>
	<path style="fill:#F29281;" d="M773.987,1698.653c-12.095,0.672-31.479-1.919-38.814,10.071c-1.496,2.443-0.743,5.184,0.933,7.238
		c8.302,10.163,26.66,5.345,37.881,4.521C787.872,1719.467,788.101,1697.868,773.987,1698.653z"/>
	<path style="fill:#F29281;" d="M1543.961,1274.997c37.084-32.495,49.245-90.178,51.447-137.34
		c2.387-51.12-8.982-105.035-34.653-149.527c-7.583-13.142-27.255-1.508-20.273,11.852c22.707,43.443,34.059,88.436,30.999,137.676
		c-2.967,47.729-23.727,86.714-38.192,131.128C1531.184,1275.246,1539.477,1278.927,1543.961,1274.997z"/>
</g>
</svg>
